<svg width="30" height="42" viewBox="0 0 30 42" fill="none" xmlns="http://www.w3.org/2000/svg">
<path d="M27.8848 22.7051C28.4141 22.2942 29.134 22.3639 29.5999 22.9117C30.0659 23.4595 30.1252 24.3057 29.7757 24.928L29.5999 25.1784L15.9641 41.2083C15.4316 41.8343 14.5684 41.8343 14.0359 41.2083L0.400053 25.1784L0.224278 24.928C-0.125247 24.3057 -0.0659214 23.4595 0.400053 22.9117C0.866027 22.3639 1.5859 22.2942 2.11519 22.7051L2.32825 22.9117L15 37.8082L27.6718 22.9117L27.8848 22.7051Z" fill="white"/>
<path d="M27.8848 0.263654C28.4141 -0.147236 29.134 -0.077495 29.5999 0.470289C30.0659 1.01807 30.1252 1.86433 29.7757 2.48655L29.5999 2.73701L15.9641 18.7669C15.4316 19.3929 14.5684 19.3929 14.0359 18.7669L0.400053 2.73701L0.224278 2.48655C-0.125247 1.86433 -0.0659214 1.01807 0.400053 0.470289C0.866027 -0.077495 1.5859 -0.147236 2.11519 0.263654L2.32825 0.470289L15 15.3668L27.6718 0.470289L27.8848 0.263654Z" fill="white"/>
</svg>
