<?xml version="1.0" encoding="UTF-8"?>
<svg width="106" height="106" xmlns="http://www.w3.org/2000/svg">
 <path d="m106 106h-106v-106h106zm-92.261-52.545a38.762 38.762 0 0 0 77.524 0 38.762 38.762 0 0 0-77.524 0m51.081 16.335c0.42 2.92-3.99 5.28-10.9 5.82-3.79 0.3-6.06-0.18-9.86-2.1-2.72-1.37-6.3-4.18-7.96-6.25s-3.68-5.64-4.49-7.94-2.63-4.94-4.04-5.87c-3.47-2.27-3.32-2.69 2.35-6.58 4.93-3.37 4.93-3.37 8.58 0.88 3.65 4.24 3.65 4.24 1.07 5.22-3.89 1.48-3.2 4.52 2.37 10.35 5.4 5.66 4.36 5.42 19.06 4.42 2.97-0.2 3.55 0.11 3.82 2.05m12.29-11.28c-2.42 1.92-5 3.49-5.75 3.49s-2.69-1.82-4.31-4.04c-2.96-4.04-2.96-4.04-0.4-5.02 8.89-3.38-6.41-17.2-16.84-15.22-7.08 1.34-8.81 0.9-8.81-2.29 0-1.97 0.84-2.6 5.18-3.89 11.56-3.43 20.71 0.64 26.44 11.77 2.04 3.95 4.87 8.21 6.29 9.45 2.59 2.25 2.59 2.25-1.8 5.75" fill="rgba(0,0,0,0)"/>
 <path d="m13.739 53.455a38.762 38.762 0 0 1 77.524 0 38.762 38.762 0 0 1-77.524 0m51.081 16.335c-0.27-1.94-0.85-2.25-3.82-2.05-14.7 1-13.66 1.24-19.06-4.42-5.57-5.83-6.26-8.87-2.37-10.35 2.58-0.98 2.58-0.98-1.07-5.22-3.65-4.25-3.65-4.25-8.58-0.88-5.67 3.89-5.82 4.31-2.35 6.58 1.41 0.93 3.23 3.57 4.04 5.87s2.83 5.87 4.49 7.94 5.24 4.88 7.96 6.25c3.8 1.92 6.07 2.4 9.86 2.1 6.91-0.54 11.32-2.9 10.9-5.82m12.29-11.28c4.39-3.5 4.39-3.5 1.8-5.75-1.42-1.24-4.25-5.5-6.29-9.45-5.73-11.13-14.88-15.2-26.44-11.77-4.34 1.29-5.18 1.92-5.18 3.89 0 3.19 1.73 3.63 8.81 2.29 10.43-1.98 25.73 11.84 16.84 15.22-2.56 0.98-2.56 0.98 0.4 5.02 1.62 2.22 3.56 4.04 4.31 4.04s3.33-1.57 5.75-3.49" fill="rgba(40,112,244,1)"/>
</svg>
