<?xml version="1.0" encoding="UTF-8"?>
<svg width="106" height="106" xmlns="http://www.w3.org/2000/svg">
 <path d="m106 106h-106v-106h106zm-41-24.68c0 3.23 3.11 8.14 6.41 10.12 1.42 0.86 4.22 1.56 6.21 1.56 2.87 0 4.42-0.8 7.5-3.88 9.4-9.41 1.01-22.05-12.6-18.98-5.02 1.13-5.02 1.13-17.58-6.43-18.79-11.3-18.79-10.17 0.03-21.47 12.53-7.52 12.53-7.52 17.83-6.46 9.22 1.84 15-1.82 15.93-10.1 1.65-14.65-20.8-17.04-23.27-2.47-0.67 3.99-1.09 4.39-11.33 10.65-15.71 9.62-17.91 10.51-20.94 8.53-5.75-3.77-15.08 1.49-15.93 8.96-1 8.91 9.36 16.75 16.22 12.26 3.96-2.6 31.52 12.89 31.52 17.71m13.56-3.89c3.87 0.97 3.2 6.96-0.81 7.32-1.51 0.14-3.19-0.31-3.73-1s-0.99-2.28-1-3.53c-0.02-2.68 1.97-3.69 5.54-2.79m-45.75-24.74c-0.29 3.51-0.57 3.83-3.56 4.06-2.41 0.19-3.41-0.23-3.86-1.58-0.33-1.01-0.44-2.7-0.24-3.75 0.27-1.42 1.36-2 4.17-2.23 3.81-0.32 3.81-0.32 3.49 3.5m47.69-27.69c0 3.23-0.25 3.52-3.25 3.75-2.53 0.19-3.4-0.21-3.94-1.83-0.38-1.16-0.13-2.97 0.55-4.07 2.22-3.55 6.64-2.12 6.64 2.15" fill="rgba(0,0,0,0)"/>
 <path d="m65 81.32c0-4.82-27.56-20.31-31.52-17.71-6.86 4.49-17.22-3.35-16.22-12.26 0.85-7.47 10.18-12.73 15.93-8.96 3.03 1.98 5.23 1.09 20.94-8.53 10.24-6.26 10.66-6.66 11.33-10.65 2.47-14.57 24.92-12.18 23.27 2.47-0.93 8.28-6.71 11.94-15.93 10.1-5.3-1.06-5.3-1.06-17.83 6.46-18.82 11.3-18.82 10.17-0.03 21.47 12.56 7.56 12.56 7.56 17.58 6.43 13.61-3.07 22 9.57 12.6 18.98-3.08 3.08-4.63 3.88-7.5 3.88-1.99 0-4.79-0.7-6.21-1.56-3.3-1.98-6.41-6.89-6.41-10.12m13.56-3.89c-3.57-0.9-5.56 0.11-5.54 2.79 0.01 1.25 0.46 2.84 1 3.53s2.22 1.14 3.73 1c4.01-0.36 4.68-6.35 0.81-7.32m-45.75-24.74c0.32-3.82 0.32-3.82-3.49-3.5-2.81 0.23-3.9 0.81-4.17 2.23-0.2 1.05-0.09 2.74 0.24 3.75 0.45 1.35 1.45 1.77 3.86 1.58 2.99-0.23 3.27-0.55 3.56-4.06m47.69-27.69c0-4.27-4.42-5.7-6.64-2.15-0.68 1.1-0.93 2.91-0.55 4.07 0.54 1.62 1.41 2.02 3.94 1.83 3-0.23 3.25-0.52 3.25-3.75" fill="rgba(43,124,252,0.988235)"/>
</svg>
