<svg width="106" height="106" xmlns="http://www.w3.org/2000/svg">
 <path d="m106 106h-106v-106h106zm-62.69-20.99c-7.38-5.23-7-0.43 0.69 8.79 3.91 4.69 6.72 7.2 8.07 7.2 1.16 0 4.71-2.51 8.03-5.68 9.39-8.96 10.74-15.82 2.06-10.49-4.33 2.67-4.33 2.67-4.82-4.45s-0.49-7.12 12.29-7.87c15.6-0.9 21.68-3.41 25.25-10.43 4.2-8.24 1.81-19.21-5.26-24.25-2.16-1.53-4.53-4.97-6.94-10.05-6.92-14.6-21.25-19.95-34.28-12.8-3.24 1.78-9.04 4.49-12.89 6.02-7.09 2.82-9 4.59-23.19 21.5-3.96 4.71-4.4 13.15-1.02 19.28 4.22 7.65 9.3 9.82 24.95 10.7 12.75 0.72 12.75 0.72 12.75 7.62 0 7.7-0.79 8.38-5.69 4.91m13.69-23.93c0 11.92 0 11.92-4 11.92s-4 0-3.75-12.75 0.25-12.75 3-12.56c2.89 0.2 3.17 0.06 2.08-1.02-0.36-0.37-0.19-0.67 0.4-0.67 1.84 0 2.27 2.85 2.27 15.08" fill="rgba(0,0,0,0)"/>
 <path d="m43.31 85.01c4.9 3.47 5.69 2.79 5.69-4.91 0-6.9 0-6.9-12.75-7.62-15.65-0.88-20.73-3.05-24.95-10.7-3.38-6.13-2.94-14.57 1.02-19.28 14.19-16.91 16.1-18.68 23.19-21.5 3.85-1.53 9.65-4.24 12.89-6.02 13.03-7.15 27.36-1.8 34.28 12.8 2.41 5.08 4.78 8.52 6.94 10.05 7.07 5.04 9.46 16.01 5.26 24.25-3.57 7.02-9.65 9.53-25.25 10.43-12.78 0.75-12.78 0.75-12.29 7.87s0.49 7.12 4.82 4.45c8.68-5.33 7.33 1.53-2.06 10.49-3.32 3.17-6.87 5.68-8.03 5.68-1.35 0-4.16-2.51-8.07-7.2-7.69-9.22-8.07-14.02-0.69-8.79m13.69-23.93c0-12.23-0.43-15.08-2.27-15.08-0.59 0-0.76 0.3-0.4 0.67 1.09 1.08 0.81 1.22-2.08 1.02-2.75-0.19-2.75-0.19-3 12.56s-0.25 12.75 3.75 12.75 4 0 4-11.92" fill="rgba(40,112,244,1)"/>
</svg>
