<?xml version="1.0" encoding="UTF-8"?>
<svg width="166" height="162" xmlns="http://www.w3.org/2000/svg">
 <path d="m166 162h-166v-162h166zm-137.75-75.8c-0.57 43.7-0.57 43.7 3.09 47.25s3.66 3.55 51.24 3.55c46.3 0 47.65-0.05 50.58-2.05 5.75-3.91 5.84-4.76 5.84-54.85 0-52.08 0.18-50.88-8.17-53.71-8.55-2.91-93.91-1.93-98.33 1.12-3.88 2.68-5.21 6.48-4.21 12.06 0.29 1.61 0.27 22.59-0.04 46.63m28.272 0.3354a26.023 26.023 0 0 1 52.046 0 26.023 26.023 0 0 1-52.046 0m15.208-5.5554c-6.33 0.04-4.43 11.02 2.88 16.64 3.54 2.72 5.29 3.38 9.03 3.38 4.24 0 5.08-0.44 9.63-4.98 4.98-4.98 4.98-4.98 4.51-10.7-0.99-11.91-18.17-20.52-19.88-9.97-0.69 4.32-2.11 5.61-6.17 5.63m-45.73-42.98v29h1v-29zm33.96 22.08c-7.74 5.92-7.74 5.92-15.35 5.92s-7.61 0-7.61-14.23c0-14.11 0.02-14.24 2.46-15.5 1.88-0.97 12.77-1.27 89.54-1.27v14.23c0 16.65-0.44 17.32-10.73 16.53-4.84-0.37-6.23-1.03-11.86-5.61-15.35-12.52-30.14-12.54-46.45-0.07m53.79-14.15c-1.1 0.1-0.87 7.36 0.27 8.82 0.54 0.69 2.73 1.25 4.87 1.25 2.63 0 4.09-0.51 4.5-1.58 0.83-2.16 0.74-6.7-0.16-7.93-0.59-0.83-4.41-1.05-9.48-0.56" fill="rgba(0,0,0,0)"/>
 <path d="m28.25 86.2c0.31-24.04 0.33-45.02 0.04-46.63-1-5.58 0.33-9.38 4.21-12.06 4.42-3.05 89.78-4.03 98.33-1.12 8.35 2.83 8.17 1.63 8.17 53.71 0 50.09-0.09 50.94-5.84 54.85-2.93 2-4.28 2.05-50.58 2.05-47.58 0-47.58 0-51.24-3.55s-3.66-3.55-3.09-47.25m28.272 0.3354a26.023 26.023 0 0 0 52.046 0 26.023 26.023 0 0 0-52.046 0m3.4378-26.455c16.31-12.47 31.1-12.45 46.45 0.07 5.63 4.58 7.02 5.24 11.86 5.61 10.29 0.79 10.73 0.12 10.73-16.53v-14.23c-76.77 0-87.66 0.3-89.54 1.27-2.44 1.26-2.46 1.39-2.46 15.5 0 14.23 0 14.23 7.61 14.23s7.61 0 15.35-5.92" fill="rgba(40,112,244,1)"/>
 <path d="m71.73 80.98c4.06-0.02 5.48-1.31 6.17-5.63 1.71-10.55 18.89-1.94 19.88 9.97 0.47 5.72 0.47 5.72-4.51 10.7-4.55 4.54-5.39 4.98-9.63 4.98-3.74 0-5.49-0.66-9.03-3.38-7.31-5.62-9.21-16.6-2.88-16.64" fill="rgba(40,112,244,1)"/>
 <path d="m113.75 45.93c5.07-0.49 8.89-0.27 9.48 0.56 0.9 1.23 0.99 5.77 0.16 7.93-0.41 1.07-1.87 1.58-4.5 1.58-2.14 0-4.33-0.56-4.87-1.25-1.14-1.46-1.37-8.72-0.27-8.82" fill="rgba(40,112,244,1)"/>
 <path d="m26 38h1v29h-1z" fill="rgba(40,112,244,1)"/>
</svg>
