<?xml version="1.0" encoding="UTF-8"?>
<svg width="166" height="162" xmlns="http://www.w3.org/2000/svg">
 <path d="m166 162h-166v-162h166zm-138.09-34.15c0.05 1.3 1.67 3.88 3.59 5.75 3.5 3.4 3.5 3.4 51.08 3.4 46.2 0 47.66-0.06 50.56-2.04 5.8-3.94 5.86-4.52 5.86-54.73 0-50.81 0.04-50.45-6.65-53.24-5.05-2.1-97.03-1.63-100.1 0.51-3.62 2.53-5.58 8.02-4.76 13.34 0.37 2.44 0.6 22.49 0.5 44.55-0.09 22.06-0.13 41.17-0.08 42.46m41.56-27.74c-6.75 8.16-12.25 12.89-14.99 12.89-0.82 0-1.48-0.28-1.48-0.62s0.31-1.36 0.68-2.25c0.37-0.9 4.87-6.47 10-12.39s9.32-11.67 9.32-12.78-4.83-9.03-10.72-17.6c-12.29-17.87-12.31-17.36 0.65-17.36 10.65 0 12.17 0.91 18.98 11.37 5.45 8.35 5.23 8.39 15.24-2.37 5.73-6.15 9.09-9 10.62-9 4.06 0 2.44 3.38-6.27 13.06-10.85 12.06-10.96 10.85 2.73 30.09 13.48 18.94 13.48 18.91 0.24 18.87-10.96-0.02-11.31-0.24-18.96-11.45-7.24-10.6-7.64-10.61-16.04-0.46m34.53 4.89-31-46-9-2 29 44z" fill="rgba(0,0,0,0)"/>
 <path d="m27.91 127.85c-0.05-1.29-0.01-20.4 0.08-42.46 0.1-22.06-0.13-42.11-0.5-44.55-0.82-5.32 1.14-10.81 4.76-13.34 3.07-2.14 95.05-2.61 100.1-0.51 6.69 2.79 6.65 2.43 6.65 53.24 0 50.21-0.06 50.79-5.86 54.73-2.9 1.98-4.36 2.04-50.56 2.04-47.58 0-47.58 0-51.08-3.4-1.92-1.87-3.54-4.45-3.59-5.75m41.56-27.74c8.4-10.15 8.8-10.14 16.04 0.46 7.65 11.21 8 11.43 18.96 11.45 13.24 0.04 13.24 0.07-0.24-18.87-13.69-19.24-13.58-18.03-2.73-30.09 8.71-9.68 10.33-13.06 6.27-13.06-1.53 0-4.89 2.85-10.62 9-10.01 10.76-9.79 10.72-15.24 2.37-6.81-10.46-8.33-11.37-18.98-11.37-12.96 0-12.94-0.51-0.65 17.36 5.89 8.57 10.72 16.49 10.72 17.6s-4.19 6.86-9.32 12.78-9.63 11.49-10 12.39c-0.37 0.89-0.68 1.91-0.68 2.25s0.66 0.62 1.48 0.62c2.74 0 8.24-4.73 14.99-12.89" fill="rgba(40,112,244,1)"/>
 <path d="m104 105-11-4-29-44 9 2z" fill="rgba(40,112,244,1)"/>
</svg>
