<?xml version="1.0" encoding="UTF-8"?>
<svg width="166" height="162" xmlns="http://www.w3.org/2000/svg">
 <path d="m166 162h-166v-162h166zm-138.1-34.15c0.05 1.3 1.68 3.88 3.6 5.75 3.5 3.4 3.5 3.4 28.9 3.4 20.6 0 25.6-0.26 26.5-1.4 0.72-0.93 1.1-8.77 1.1-44.52l-7.25-0.29c-7.25-0.29-7.25-0.29-7.58-7.54s-0.33-7.25 7.25-7.25 7.58 0 7.58-7.46c0-14.21 6.49-22.06 19.24-23.28 10.26-0.98 13.76 2.25 13.76 12.68 0 3.06 0 3.06-6.63 3.06-8.03 0-11.37 3.16-11.37 10.77 0 4.23 0 4.23 8.5 4.23 9.73 0 9.58-0.2 6.71 9-1.71 5.5-1.71 5.5-15.21 6.17v21.01c0 26.16-0.82 24.84 15.56 24.83 21.15-0.02 20.44 1.96 20.44-56.86-0.01-50.62 0.03-50.34-6.69-53.2-4.72-2.01-96.81-1.51-99.94 0.54-4.07 2.67-5.65 7.21-4.88 14.01 0.37 3.3 0.59 23.55 0.49 45s-0.14 40.06-0.08 41.35" fill="rgba(0,0,0,0)"/>
 <path d="m27.9 127.85c-0.06-1.29-0.02-19.9 0.08-41.35s-0.12-41.7-0.49-45c-0.77-6.8 0.81-11.34 4.88-14.01 3.13-2.05 95.22-2.55 99.94-0.54 6.72 2.86 6.68 2.58 6.69 53.2 0 58.82 0.71 56.84-20.44 56.86-16.38 0.01-15.56 1.33-15.56-24.83v-21.01c13.5-0.67 13.5-0.67 15.21-6.17 2.87-9.2 3.02-9-6.71-9-8.5 0-8.5 0-8.5-4.23 0-7.61 3.34-10.77 11.37-10.77 6.63 0 6.63 0 6.63-3.06 0-10.43-3.5-13.66-13.76-12.68-12.75 1.22-19.24 9.07-19.24 23.28 0 7.46 0 7.46-7.58 7.46s-7.58 0-7.25 7.25 0.33 7.25 7.58 7.54l7.25 0.29c0 35.75-0.38 43.59-1.1 44.52-0.9 1.14-5.9 1.4-26.5 1.4-25.4 0-25.4 0-28.9-3.4-1.92-1.87-3.55-4.45-3.6-5.75" fill="rgba(40,112,244,1)"/>
</svg>
